name rise45.9887peak57.8056fall74.9286.mot
datacolumns 19
datarows 21
range 13.84828900000000 13.88161600000000
endheader
time	ground_force1_vx	ground_force1_vy	ground_force1_vz	ground_force1_px	ground_force1_py	ground_force1_pz	ground_force2_vx	ground_force2_vy	ground_force2_vz	ground_force2_px	ground_force2_py	ground_force2_pz	ground_torque1_x	ground_torque1_y	ground_torque1_z	ground_torque2_x	ground_torque2_y	ground_torque2_z	
13.84828900000000	51.12306000000000	741.90935600000000	62.41912300000000	0.31084400000000	0.00000000000000	0.14669700000000	0.00000000000000	0.00000000000000	0.00000000000000	0.00000000000000	0.00000000000000	0.00000000000000	0.00000000000000	23.47242600000000	0.00000000000000	0.00000000000000	0.00000000000000	0.00000000000000	
13.84994600000000	50.44610000000000	745.27936699999998	62.54105500000000	0.30998400000000	0.00000000000000	0.14670200000000	0.00000000000000	0.00000000000000	0.00000000000000	0.00000000000000	0.00000000000000	0.00000000000000	0.00000000000000	23.60482300000000	0.00000000000000	0.00000000000000	0.00000000000000	0.00000000000000	
13.85161500000000	49.77280900000000	748.55907700000000	62.66392600000000	0.30915400000000	0.00000000000000	0.14670700000000	0.00000000000000	0.00000000000000	0.00000000000000	0.00000000000000	0.00000000000000	0.00000000000000	0.00000000000000	23.73929100000000	0.00000000000000	0.00000000000000	0.00000000000000	0.00000000000000	
13.85330100000000	49.10341900000000	751.74478699999997	62.78754000000000	0.30835100000000	0.00000000000000	0.14671100000000	0.00000000000000	0.00000000000000	0.00000000000000	0.00000000000000	0.00000000000000	0.00000000000000	0.00000000000000	23.87557900000000	0.00000000000000	0.00000000000000	0.00000000000000	0.00000000000000	
13.85495300000000	48.43809400000000	754.83282699999995	62.91162500000000	0.30757300000000	0.00000000000000	0.14671600000000	0.00000000000000	0.00000000000000	0.00000000000000	0.00000000000000	0.00000000000000	0.00000000000000	0.00000000000000	24.01340000000000	0.00000000000000	0.00000000000000	0.00000000000000	0.00000000000000	
13.85661900000000	47.77693400000000	757.81957499999999	63.03583500000000	0.30681800000000	0.00000000000000	0.14672000000000	0.00000000000000	0.00000000000000	0.00000000000000	0.00000000000000	0.00000000000000	0.00000000000000	0.00000000000000	24.15242500000000	0.00000000000000	0.00000000000000	0.00000000000000	0.00000000000000	
13.85828000000000	47.11998100000000	760.70147699999995	63.15975700000000	0.30608400000000	0.00000000000000	0.14672500000000	0.00000000000000	0.00000000000000	0.00000000000000	0.00000000000000	0.00000000000000	0.00000000000000	0.00000000000000	24.29229400000000	0.00000000000000	0.00000000000000	0.00000000000000	0.00000000000000	
13.85995000000000	46.46722200000000	763.47506999999996	63.28291600000000	0.30536800000000	0.00000000000000	0.14673000000000	0.00000000000000	0.00000000000000	0.00000000000000	0.00000000000000	0.00000000000000	0.00000000000000	0.00000000000000	24.43261400000000	0.00000000000000	0.00000000000000	0.00000000000000	0.00000000000000	
13.86161600000000	45.81859600000000	766.13699999999994	63.40477900000000	0.30466900000000	0.00000000000000	0.14673500000000	0.00000000000000	0.00000000000000	0.00000000000000	0.00000000000000	0.00000000000000	0.00000000000000	0.00000000000000	24.57296500000000	0.00000000000000	0.00000000000000	0.00000000000000	0.00000000000000	
13.86330200000000	45.17399300000000	768.68404299999997	63.52476000000000	0.30398300000000	0.00000000000000	0.14674000000000	0.00000000000000	0.00000000000000	0.00000000000000	0.00000000000000	0.00000000000000	0.00000000000000	0.00000000000000	24.71289900000000	0.00000000000000	0.00000000000000	0.00000000000000	0.00000000000000	
13.86495400000000	44.53326500000000	771.11311699999999	63.64223000000000	0.30330900000000	0.00000000000000	0.14674500000000	0.00000000000000	0.00000000000000	0.00000000000000	0.00000000000000	0.00000000000000	0.00000000000000	0.00000000000000	24.85194900000000	0.00000000000000	0.00000000000000	0.00000000000000	0.00000000000000	
13.86662000000000	43.89622800000000	773.42130799999995	63.75651900000000	0.30264300000000	0.00000000000000	0.14675100000000	0.00000000000000	0.00000000000000	0.00000000000000	0.00000000000000	0.00000000000000	0.00000000000000	0.00000000000000	24.98962700000000	0.00000000000000	0.00000000000000	0.00000000000000	0.00000000000000	
13.86830200000000	43.26266700000000	775.60588099999995	63.86692400000000	0.30198300000000	0.00000000000000	0.14675700000000	0.00000000000000	0.00000000000000	0.00000000000000	0.00000000000000	0.00000000000000	0.00000000000000	0.00000000000000	25.12543100000000	0.00000000000000	0.00000000000000	0.00000000000000	0.00000000000000	
13.86994600000000	42.63234200000000	777.66429700000003	63.97271500000000	0.30132800000000	0.00000000000000	0.14676300000000	0.00000000000000	0.00000000000000	0.00000000000000	0.00000000000000	0.00000000000000	0.00000000000000	0.00000000000000	25.25884800000000	0.00000000000000	0.00000000000000	0.00000000000000	0.00000000000000	
13.87161400000000	42.00499100000000	779.59423000000004	64.07314300000000	0.30067300000000	0.00000000000000	0.14677000000000	0.00000000000000	0.00000000000000	0.00000000000000	0.00000000000000	0.00000000000000	0.00000000000000	0.00000000000000	25.38935500000000	0.00000000000000	0.00000000000000	0.00000000000000	0.00000000000000	
13.87328900000000	41.38033600000000	781.39357500000006	64.16744600000000	0.30001700000000	0.00000000000000	0.14677800000000	0.00000000000000	0.00000000000000	0.00000000000000	0.00000000000000	0.00000000000000	0.00000000000000	0.00000000000000	25.51642800000000	0.00000000000000	0.00000000000000	0.00000000000000	0.00000000000000	
13.87495000000000	40.75809100000000	783.06046700000002	64.25485200000000	0.29935800000000	0.00000000000000	0.14678600000000	0.00000000000000	0.00000000000000	0.00000000000000	0.00000000000000	0.00000000000000	0.00000000000000	0.00000000000000	25.63953900000000	0.00000000000000	0.00000000000000	0.00000000000000	0.00000000000000	
13.87661900000000	40.13795900000000	784.59328600000003	64.33459000000001	0.29869200000000	0.00000000000000	0.14679400000000	0.00000000000000	0.00000000000000	0.00000000000000	0.00000000000000	0.00000000000000	0.00000000000000	0.00000000000000	25.75816400000000	0.00000000000000	0.00000000000000	0.00000000000000	0.00000000000000	
13.87830200000000	39.51964400000000	785.99067300000002	64.40589700000000	0.29801800000000	0.00000000000000	0.14680300000000	0.00000000000000	0.00000000000000	0.00000000000000	0.00000000000000	0.00000000000000	0.00000000000000	0.00000000000000	25.87178500000000	0.00000000000000	0.00000000000000	0.00000000000000	0.00000000000000	
13.87994900000000	38.90285300000000	787.25153399999999	64.46801700000000	0.29733200000000	0.00000000000000	0.14681300000000	0.00000000000000	0.00000000000000	0.00000000000000	0.00000000000000	0.00000000000000	0.00000000000000	0.00000000000000	25.97989600000000	0.00000000000000	0.00000000000000	0.00000000000000	0.00000000000000	
13.88161600000000	38.28729700000000	788.37504899999999	64.52021600000000	0.29663400000000	0.00000000000000	0.14682300000000	0.00000000000000	0.00000000000000	0.00000000000000	0.00000000000000	0.00000000000000	0.00000000000000	0.00000000000000	26.08200200000000	0.00000000000000	0.00000000000000	0.00000000000000	0.00000000000000	
